<svg><defs><g id="sitemap"><path d="M9,2V8H11V11H5C3.89,11 3,11.89 3,13V16H1V22H7V16H5V13H11V16H9V22H15V16H13V13H19V16H17V22H23V16H21V13C21,11.89 20.11,11 19,11H13V8H15V2H9Z" /></g><g id="filter-outline"><path d="M15,19.88C15.04,20.18 14.94,20.5 14.71,20.71C14.32,21.1 13.69,21.1 13.3,20.71L9.29,16.7C9.06,16.47 8.96,16.16 9,15.87V10.75L4.21,4.62C3.87,4.19 3.95,3.56 4.38,3.22C4.57,3.08 4.78,3 5,3V3H19V3C19.22,3 19.43,3.08 19.62,3.22C20.05,3.56 20.13,4.19 19.79,4.62L15,10.75V19.88M7.04,5L11,10.06V15.58L13,17.58V10.05L16.96,5H7.04Z" /></g><g id="close"><path d="M19,6.41L17.59,5L12,10.59L6.41,5L5,6.41L10.59,12L5,17.59L6.41,19L12,13.41L17.59,19L19,17.59L13.41,12L19,6.41Z" /></g><g id="chevron-double-right"><path d="M5.59,7.41L7,6L13,12L7,18L5.59,16.59L10.17,12L5.59,7.41M11.59,7.41L13,6L19,12L13,18L11.59,16.59L16.17,12L11.59,7.41Z" /></g><g id="arrow-collapse-up"><path d="M4.08,11.92L12,4L19.92,11.92L18.5,13.33L13,7.83V22H11V7.83L5.5,13.33L4.08,11.92M12,4H22V2H2V4H12Z" /></g><g id="chevron-double-left"><path d="M18.41,7.41L17,6L11,12L17,18L18.41,16.59L13.83,12L18.41,7.41M12.41,7.41L11,6L5,12L11,18L12.41,16.59L7.83,12L12.41,7.41Z" /></g><g id="arrow-collapse-down"><path d="M19.92,12.08L12,20L4.08,12.08L5.5,10.67L11,16.17V2H13V16.17L18.5,10.66L19.92,12.08M12,20H2V22H22V20H12Z" /></g><g id="feature-search-outline"><path d="M15.5,2C13,2 11,4 11,6.5C11,9 13,11 15.5,11C16.4,11 17.2,10.7 17.9,10.3L21,13.4L22.4,12L19.3,8.9C19.7,8.2 20,7.4 20,6.5C20,4 18,2 15.5,2M4,4A2,2 0 0,0 2,6V20A2,2 0 0,0 4,22H18A2,2 0 0,0 20,20V15L18,13V20H4V6H9.03C9.09,5.3 9.26,4.65 9.5,4H4M15.5,4C16.9,4 18,5.1 18,6.5C18,7.9 16.9,9 15.5,9C14.1,9 13,7.9 13,6.5C13,5.1 14.1,4 15.5,4Z" /></g></defs></svg>